<?xml version="1.0" encoding="utf-8"?>
<!-- Generator: Adobe Illustrator 26.0.0, SVG Export Plug-In . SVG Version: 6.00 Build 0)  -->
<svg version="1.1" id="Layer_1" xmlns="http://www.w3.org/2000/svg" xmlns:xlink="http://www.w3.org/1999/xlink" x="0px" y="0px"
	 viewBox="0 0 612 792" style="enable-background:new 0 0 612 792;" xml:space="preserve">
<g>
	<g>
		<ellipse cx="506.53" cy="502.85" rx="37.47" ry="37.45"/>
		<path d="M506.53,541.28c-21.2,0-38.45-17.24-38.45-38.43s17.25-38.43,38.45-38.43s38.45,17.24,38.45,38.43
			S527.73,541.28,506.53,541.28z M506.53,466.38c-20.12,0-36.49,16.36-36.49,36.47c0,20.11,16.37,36.47,36.49,36.47
			c20.12,0,36.49-16.36,36.49-36.47C543.02,482.74,526.65,466.38,506.53,466.38z"/>
	</g>
	<g>
		<ellipse cx="105.47" cy="101.94" rx="37.47" ry="37.45"/>
		<path d="M105.47,140.36c-21.2,0-38.45-17.24-38.45-38.43s17.25-38.43,38.45-38.43c21.2,0,38.45,17.24,38.45,38.43
			S126.67,140.36,105.47,140.36z M105.47,65.47c-20.12,0-36.49,16.36-36.49,36.47s16.37,36.47,36.49,36.47s36.49-16.36,36.49-36.47
			S125.59,65.47,105.47,65.47z"/>
	</g>
	<g>
		<ellipse cx="239.16" cy="101.94" rx="37.47" ry="37.45"/>
		<path d="M239.16,140.36c-21.2,0-38.45-17.24-38.45-38.43s17.25-38.43,38.45-38.43s38.45,17.24,38.45,38.43
			S260.36,140.36,239.16,140.36z M239.16,65.47c-20.12,0-36.49,16.36-36.49,36.47s16.37,36.47,36.49,36.47s36.49-16.36,36.49-36.47
			S259.28,65.47,239.16,65.47z"/>
	</g>
	<g>
		<ellipse cx="372.84" cy="101.94" rx="37.47" ry="37.45"/>
		<path d="M372.84,140.36c-21.2,0-38.45-17.24-38.45-38.43s17.25-38.43,38.45-38.43s38.45,17.24,38.45,38.43
			S394.04,140.36,372.84,140.36z M372.84,65.47c-20.12,0-36.49,16.36-36.49,36.47s16.37,36.47,36.49,36.47s36.49-16.36,36.49-36.47
			S392.96,65.47,372.84,65.47z"/>
	</g>
	<g>
		<ellipse cx="506.53" cy="101.94" rx="37.47" ry="37.45"/>
		<path d="M506.53,140.36c-21.2,0-38.45-17.24-38.45-38.43s17.25-38.43,38.45-38.43s38.45,17.24,38.45,38.43
			S527.73,140.36,506.53,140.36z M506.53,65.47c-20.12,0-36.49,16.36-36.49,36.47s16.37,36.47,36.49,36.47
			c20.12,0,36.49-16.36,36.49-36.47S526.65,65.47,506.53,65.47z"/>
	</g>
	<g>
		<ellipse cx="105.47" cy="235.57" rx="37.47" ry="37.45"/>
		<path d="M105.47,274c-21.2,0-38.45-17.24-38.45-38.43s17.25-38.43,38.45-38.43c21.2,0,38.45,17.24,38.45,38.43
			S126.67,274,105.47,274z M105.47,199.1c-20.12,0-36.49,16.36-36.49,36.47s16.37,36.47,36.49,36.47s36.49-16.36,36.49-36.47
			S125.59,199.1,105.47,199.1z"/>
	</g>
	<g>
		<ellipse cx="239.16" cy="235.57" rx="37.47" ry="37.45"/>
		<path d="M239.16,274c-21.2,0-38.45-17.24-38.45-38.43s17.25-38.43,38.45-38.43s38.45,17.24,38.45,38.43S260.36,274,239.16,274z
			 M239.16,199.1c-20.12,0-36.49,16.36-36.49,36.47s16.37,36.47,36.49,36.47s36.49-16.36,36.49-36.47S259.28,199.1,239.16,199.1z"/>
	</g>
	<g>
		<ellipse cx="372.84" cy="235.57" rx="37.47" ry="37.45"/>
		<path d="M372.84,274c-21.2,0-38.45-17.24-38.45-38.43s17.25-38.43,38.45-38.43s38.45,17.24,38.45,38.43S394.04,274,372.84,274z
			 M372.84,199.1c-20.12,0-36.49,16.36-36.49,36.47s16.37,36.47,36.49,36.47s36.49-16.36,36.49-36.47S392.96,199.1,372.84,199.1z"/>
	</g>
	<g>
		<ellipse cx="506.53" cy="235.57" rx="37.47" ry="37.45"/>
		<path d="M506.53,274c-21.2,0-38.45-17.24-38.45-38.43s17.25-38.43,38.45-38.43s38.45,17.24,38.45,38.43S527.73,274,506.53,274z
			 M506.53,199.1c-20.12,0-36.49,16.36-36.49,36.47s16.37,36.47,36.49,36.47c20.12,0,36.49-16.36,36.49-36.47
			S526.65,199.1,506.53,199.1z"/>
	</g>
	<g>
		<ellipse cx="105.47" cy="369.21" rx="37.47" ry="37.45"/>
		<path d="M105.47,407.64c-21.2,0-38.45-17.24-38.45-38.43c0-21.19,17.25-38.43,38.45-38.43c21.2,0,38.45,17.24,38.45,38.43
			C143.92,390.4,126.67,407.64,105.47,407.64z M105.47,332.74c-20.12,0-36.49,16.36-36.49,36.47c0,20.11,16.37,36.47,36.49,36.47
			s36.49-16.36,36.49-36.47C141.96,349.1,125.59,332.74,105.47,332.74z"/>
	</g>
	<g>
		<ellipse cx="239.16" cy="369.21" rx="37.47" ry="37.45"/>
		<path d="M239.16,407.64c-21.2,0-38.45-17.24-38.45-38.43c0-21.19,17.25-38.43,38.45-38.43s38.45,17.24,38.45,38.43
			C277.61,390.4,260.36,407.64,239.16,407.64z M239.16,332.74c-20.12,0-36.49,16.36-36.49,36.47c0,20.11,16.37,36.47,36.49,36.47
			s36.49-16.36,36.49-36.47C275.65,349.1,259.28,332.74,239.16,332.74z"/>
	</g>
	<g>
		<ellipse cx="372.84" cy="369.21" rx="37.47" ry="37.45"/>
		<path d="M372.84,407.64c-21.2,0-38.45-17.24-38.45-38.43c0-21.19,17.25-38.43,38.45-38.43s38.45,17.24,38.45,38.43
			C411.29,390.4,394.04,407.64,372.84,407.64z M372.84,332.74c-20.12,0-36.49,16.36-36.49,36.47c0,20.11,16.37,36.47,36.49,36.47
			s36.49-16.36,36.49-36.47C409.34,349.1,392.96,332.74,372.84,332.74z"/>
	</g>
	<g>
		<ellipse cx="506.53" cy="369.21" rx="37.47" ry="37.45"/>
		<path d="M506.53,407.64c-21.2,0-38.45-17.24-38.45-38.43c0-21.19,17.25-38.43,38.45-38.43s38.45,17.24,38.45,38.43
			C544.98,390.4,527.73,407.64,506.53,407.64z M506.53,332.74c-20.12,0-36.49,16.36-36.49,36.47c0,20.11,16.37,36.47,36.49,36.47
			c20.12,0,36.49-16.36,36.49-36.47C543.02,349.1,526.65,332.74,506.53,332.74z"/>
	</g>
	<g>
		<ellipse cx="105.47" cy="502.85" rx="37.47" ry="37.45"/>
		<path d="M105.47,541.28c-21.2,0-38.45-17.24-38.45-38.43s17.25-38.43,38.45-38.43c21.2,0,38.45,17.24,38.45,38.43
			S126.67,541.28,105.47,541.28z M105.47,466.38c-20.12,0-36.49,16.36-36.49,36.47c0,20.11,16.37,36.47,36.49,36.47
			s36.49-16.36,36.49-36.47C141.96,482.74,125.59,466.38,105.47,466.38z"/>
	</g>
	<g>
		<ellipse cx="239.16" cy="502.85" rx="37.47" ry="37.45"/>
		<path d="M239.16,541.28c-21.2,0-38.45-17.24-38.45-38.43s17.25-38.43,38.45-38.43s38.45,17.24,38.45,38.43
			S260.36,541.28,239.16,541.28z M239.16,466.38c-20.12,0-36.49,16.36-36.49,36.47c0,20.11,16.37,36.47,36.49,36.47
			s36.49-16.36,36.49-36.47C275.65,482.74,259.28,466.38,239.16,466.38z"/>
	</g>
	<g>
		<ellipse cx="372.84" cy="502.85" rx="37.47" ry="37.45"/>
		<path d="M372.84,541.28c-21.2,0-38.45-17.24-38.45-38.43s17.25-38.43,38.45-38.43s38.45,17.24,38.45,38.43
			S394.04,541.28,372.84,541.28z M372.84,466.38c-20.12,0-36.49,16.36-36.49,36.47c0,20.11,16.37,36.47,36.49,36.47
			s36.49-16.36,36.49-36.47C409.34,482.74,392.96,466.38,372.84,466.38z"/>
	</g>
</g>
<g>
</g>
<g>
</g>
<g>
</g>
<g>
</g>
<g>
</g>
<g>
</g>
</svg>
