<svg xmlns="http://www.w3.org/2000/svg" viewBox="0 0 244.1 244"><defs><style>.cls-1{fill:#231f20;stroke:#231f20;stroke-miterlimit:10;}</style></defs><g id="Layer_2" data-name="Layer 2"><g id="Layer_1-2" data-name="Layer 1"><ellipse class="cls-1" cx="224.46" cy="224.37" rx="19.14" ry="19.13"/><ellipse class="cls-1" cx="19.64" cy="19.62" rx="19.14" ry="19.13"/><ellipse class="cls-1" cx="87.91" cy="19.62" rx="19.14" ry="19.13"/><ellipse class="cls-1" cx="156.19" cy="19.62" rx="19.14" ry="19.13"/><ellipse class="cls-1" cx="224.46" cy="19.62" rx="19.14" ry="19.13"/><ellipse class="cls-1" cx="19.64" cy="87.87" rx="19.14" ry="19.13"/><ellipse class="cls-1" cx="87.91" cy="87.87" rx="19.14" ry="19.13"/><ellipse class="cls-1" cx="156.19" cy="87.87" rx="19.14" ry="19.13"/><ellipse class="cls-1" cx="224.46" cy="87.87" rx="19.14" ry="19.13"/><ellipse class="cls-1" cx="19.64" cy="156.12" rx="19.14" ry="19.13"/><ellipse class="cls-1" cx="87.91" cy="156.12" rx="19.14" ry="19.13"/><ellipse class="cls-1" cx="156.19" cy="156.12" rx="19.14" ry="19.13"/><ellipse class="cls-1" cx="224.46" cy="156.12" rx="19.14" ry="19.13"/><ellipse class="cls-1" cx="19.64" cy="224.37" rx="19.14" ry="19.13"/><ellipse class="cls-1" cx="87.91" cy="224.37" rx="19.14" ry="19.13"/><ellipse class="cls-1" cx="156.19" cy="224.37" rx="19.14" ry="19.13"/></g></g></svg>